<?xml version="1.0" encoding="UTF-8"?>
<svg id="Camada_1" xmlns="http://www.w3.org/2000/svg" version="1.1" viewBox="0 0 566.93 283.46">
  <!-- Generator: Adobe Illustrator 30.0.0, SVG Export Plug-In . SVG Version: 2.1.1 Build 123)  -->
  <defs>
    <style>
      .st0 {
        fill: #fff;
      }
    </style>
  </defs>
  <polygon class="st0" points="334.98 42.18 297.03 63.02 259.04 42.18 259.04 84.9 297.01 106.84 334.98 84.9 334.98 42.18"/>
  <polygon class="st0" points="334.98 177.4 297.03 198.23 259.04 177.4 259.04 220.11 297.01 242.05 334.98 220.11 334.98 177.4"/>
  <polygon class="st0" points="413.31 177.4 375.37 198.23 337.38 177.4 337.38 220.11 375.35 242.05 413.31 220.11 413.31 177.4"/>
  <polygon class="st0" points="256.64 177.4 218.69 198.23 180.71 177.4 180.71 220.11 218.67 242.05 256.64 220.11 256.64 177.4"/>
  <polygon class="st0" points="296.03 109.63 258.08 130.47 220.09 109.63 220.09 152.35 258.06 174.28 296.03 152.35 296.03 109.63"/>
  <polygon class="st0" points="373.93 109.63 335.98 130.47 297.99 109.63 297.99 152.35 335.96 174.28 373.93 152.35 373.93 109.63"/>
  <g>
    <path class="st0" d="M445.76,54.38c-8.18-17.47-49.36-16.73-103.46-1.12,40.12-9.53,69.97-8.12,76.67,6.18,6.58,14.05-10.72,37.3-42.62,61.54v16.27c49.11-32.47,77.83-64.92,69.41-82.88Z"/>
    <path class="st0" d="M178.31,203.5c-18.66.51-31.57-3.4-35.69-12.21-6.77-14.47,11.75-38.7,45.5-63.72-47.6,31.92-75.21,63.58-66.94,81.24,5.62,12.01,26.84,15.41,57.14,11.3v-16.61Z"/>
  </g>
  <g>
    <path class="st0" d="M427.52,208.69c-3.15,0-5.71,2.56-5.71,5.71s2.56,5.71,5.71,5.71,5.71-2.56,5.71-5.71-2.56-5.71-5.71-5.71ZM427.52,219.36c-2.73,0-4.96-2.22-4.96-4.96s2.22-4.96,4.96-4.96,4.96,2.22,4.96,4.96-2.22,4.96-4.96,4.96Z"/>
    <path class="st0" d="M430.39,217.16h-1.27l-1.65-1.9h-1.03v1.9h-1.07v-5.69c.9,0,1.8,0,2.7,0,1.34,0,2.04.9,2.04,1.88,0,.78-.36,1.57-1.44,1.78l1.72,1.94v.07ZM426.43,212.48v1.82h1.63c.68,0,.97-.45.97-.91s-.3-.91-.97-.91h-1.63Z"/>
  </g>
  <path class="st0" d="M207.36,124.14c3.68-1.15,6.9-1.45,9.15-1.49-2.25-.05-5.47-.34-9.15-1.49-3.25-1.02-5.97-1.87-8.4-4.31-2.62-2.62-3.51-5.66-4.31-8.4-1.48-5.07-1.49-9.47-1.49-9.15-.05,2.25-.34,5.47-1.49,9.15-.85,2.73-1.69,5.78-4.31,8.4-2.44,2.44-5.15,3.29-8.4,4.31-3.68,1.15-6.9,1.45-9.15,1.49,2.25.05,5.47.34,9.15,1.49,3.25,1.02,5.97,1.87,8.4,4.31,2.44,2.44,3.29,5.15,4.31,8.4,1.15,3.68,1.45,6.9,1.49,9.15.05-2.25.34-5.47,1.49-9.15,1.02-3.25,1.87-5.97,4.31-8.4,2.44-2.44,5.15-3.29,8.4-4.31Z"/>
</svg>