<?xml version="1.0" encoding="UTF-8"?>
<svg id="Camada_1" xmlns="http://www.w3.org/2000/svg" version="1.1" viewBox="0 0 566.93 283.46">
  <!-- Generator: Adobe Illustrator 30.0.0, SVG Export Plug-In . SVG Version: 2.1.1 Build 123)  -->
  <defs>
    <style>
      .st0 {
        fill: #1d1d1b;
      }

      .st1 {
        fill: #ec671b;
      }
    </style>
  </defs>
  <g>
    <g>
      <g>
        <path class="st0" d="M357.18,92.98h47.02v12.19l-47.71.09c-5.04,1.33-7.2,11.26-7.2,16.06,0,5.07,2.64,16.15,7.89,16.15h13.12l33.9.02v12.18l-50.36-.43c-14.72-3.86-20.62-29.79-11.31-46.14,3.2-5.62,8.33-10.12,14.65-10.12Z"/>
        <path class="st0" d="M412.84,92.98h63.6v12.19h-63.6v-12.19ZM476.44,115.25v12.19h-52.34v10.05h52.34v12.19h-63.6v-34.43h63.6Z"/>
      </g>
      <g>
        <path class="st0" d="M99.71,127.14c-6.46-1.72-9.6-10.12-9.6-16.94,0-7.76,4.16-17.23,11.68-17.23h52.81v12.19h-49.99c-4.27,0-4.26,10.08,0,10.08h39.97c13.51,0,16.01,28.4,3.28,33.76-1.04.44-2.14.66-3.26.66h-52.82v-12.18h49.98c4.3,0,4.28-10.08.02-10.08l-42.06-.28Z"/>
        <path d="M229.3,118.16c-.23-11.35-4.55-23.1-11.82-24.89l-54.33-.29v12.19h49.17c7.09,0,7.84,22.85.81,24.41l-49.98.09v20.01h11.26v-7.82h35.89c.52-6.25,7.21-14.59,19-23.69Z"/>
      </g>
    </g>
    <g>
      <g>
        <polygon class="st0" points="300.48 79.67 285.55 87.87 270.61 79.67 270.61 96.48 285.54 105.11 300.48 96.48 300.48 79.67"/>
        <polygon class="st0" points="300.48 132.87 285.55 141.07 270.61 132.87 270.61 149.68 285.54 158.31 300.48 149.68 300.48 132.87"/>
        <polygon class="st0" points="331.3 132.87 316.37 141.07 301.43 132.87 301.43 149.68 316.37 158.31 331.3 149.68 331.3 132.87"/>
        <polygon class="st0" points="269.66 132.87 254.73 141.07 239.78 132.87 239.78 149.68 254.72 158.31 269.66 149.68 269.66 132.87"/>
        <polygon class="st0" points="285.16 106.21 270.23 114.41 255.28 106.21 255.28 123.01 270.22 131.65 285.16 123.01 285.16 106.21"/>
        <polygon class="st0" points="315.81 106.21 300.88 114.41 285.93 106.21 285.93 123.01 300.87 131.65 315.81 123.01 315.81 106.21"/>
      </g>
      <path class="st0" d="M344.09,84.47c-3.22-6.87-19.43-6.59-40.72-.44,15.79-3.75,27.54-3.19,30.18,2.43,2.59,5.53-4.22,14.68-16.78,24.22v6.4c19.33-12.78,30.63-25.55,27.32-32.62Z"/>
      <path class="st0" d="M250.25,111.92c1.45-.45,2.72-.57,3.6-.59-.88-.02-2.15-.13-3.6-.59-1.28-.4-2.35-.74-3.31-1.7-1.03-1.03-1.38-2.23-1.7-3.31-.58-2-.59-3.73-.59-3.6-.02.88-.13,2.15-.59,3.6-.34,1.07-.66,2.28-1.7,3.31-.96.96-2.03,1.29-3.31,1.7-1.45.45-2.72.57-3.6.59.88.02,2.15.13,3.6.59,1.28.4,2.35.74,3.31,1.7.96.96,1.29,2.03,1.7,3.31.45,1.45.57,2.72.59,3.6.02-.88.13-2.15.59-3.6.4-1.28.74-2.35,1.7-3.31.96-.96,2.03-1.29,3.31-1.7Z"/>
      <path class="st0" d="M238.82,143.16c-7.35.2-12.43-1.34-14.05-4.8-2.67-5.69,4.62-15.23,17.91-25.08-18.74,12.56-29.6,25.03-26.35,31.98,2.21,4.73,10.57,6.07,22.49,4.45v-6.54Z"/>
    </g>
  </g>
  <g>
    <path class="st1" d="M291.65,184.52l-7.14,13.25h-1.61l-15.3-27.75h-9.37l17.41,30.93c.13.23.26.47.39.72,1.14,2.09,2.56,4.7,5.77,4.7h1.07c.21,0,.42,0,.61,0,4.87,0,5.52-.34,8.3-5.45l17.39-30.89h-9.37l-8.17,14.5Z"/>
    <g>
      <polygon class="st1" points="314.67 206.37 355.32 206.37 355.32 197.77 322.69 197.77 322.69 192.5 355.32 192.5 355.32 183.9 314.67 183.9 314.67 206.37"/>
      <rect class="st1" x="314.67" y="170.02" width="40.65" height="8.6"/>
    </g>
    <g>
      <polygon class="st1" points="158.93 206.37 199.58 206.37 199.58 197.77 166.94 197.77 166.94 192.5 199.58 192.5 199.58 183.9 158.93 183.9 158.93 206.37"/>
      <rect class="st1" x="158.93" y="170.02" width="40.65" height="8.6"/>
    </g>
    <path class="st1" d="M144.38,170.04h-31.18s0,36.33,0,36.33h29.01c3.61,0,7.01-2.39,9.31-6.56,3.4-6.14,3.73-14.88.83-21.75-1.8-4.26-4.63-7.11-7.97-8.01ZM121.01,178.62h21.19c2.62,0,4.29,6.28,4.29,9.57,0,3.01-1.31,8.72-3.94,9.51l-8.31.07h-13.23v-19.15Z"/>
    <polygon class="st1" points="213.66 170.02 205.07 170.02 205.07 206.37 238.66 206.37 238.66 197.78 213.66 197.78 213.66 170.02"/>
    <rect class="st1" x="244.15" y="170.02" width="8.59" height="36.34"/>
    <path class="st1" d="M401.39,178.96c-1.1-4.64-3.72-7.91-7.01-8.75l-33.57-.2v8.6h30.32c1.81,0,2.7,2.15,2.91,3.99.28,2.48-.49,5.36-2.47,5.86l-30.76.06v17.84h7.83v-9.25h21.09l5.22,9.25h9.21l-6.42-11.37c4.19-3.94,4.84-11.01,3.65-16.03Z"/>
    <polygon class="st1" points="442.53 170.02 428.85 184.54 415.18 170.02 404.36 170.02 424.94 191.87 424.94 206.37 432.77 206.37 432.77 191.87 453.35 170.02 442.53 170.02"/>
  </g>
</svg>