<?xml version="1.0" encoding="utf-8"?>
<!-- Generator: Adobe Adobe Illustrator 29.2.0, SVG Export Plug-In . SVG Version: 6.00 Build 0)  -->
<svg version="1.1" id="Layer_1" xmlns="http://www.w3.org/2000/svg" xmlns:xlink="http://www.w3.org/1999/xlink" x="0px" y="0px"
	 viewBox="0 0 224 70" style="enable-background:new 0 0 224 70;" xml:space="preserve">
<style type="text/css">
	.st0{fill:#FFFFFF;}
	.st1{fill:#DBDBDB;}
	.st2{display:none;}
	.st3{display:inline;fill:#A0DEF9;}
	.st4{display:inline;}
	.st5{fill:#8BCCE8;}
	.st6{fill:#7CBCD8;}
</style>
<path class="st0" d="M30.67,54.04c-0.9,0.52-1.92,0.79-2.96,0.8c-0.02,0-0.04,0-0.06,0c-1.06,0-2.1-0.28-3.01-0.81l-8.64-4.99
	c-1.86-1.07-3.01-3.07-3.01-5.22v-9.97c0-1.06,0.28-2.1,0.81-3.02c0.06-0.1,0.13-0.19,0.19-0.29c0.52-0.78,1.2-1.45,2.01-1.92
	l8.64-4.98c0.92-0.53,1.96-0.81,3.01-0.81c1.06,0,2.1,0.28,3.01,0.81l9.5,5.48l8.2-4.74l-15.81-9.12c-1.49-0.86-3.19-1.32-4.91-1.32
	c-0.37,0-0.74,0.03-1.1,0.07c0.07,0.14,0.15,0.27,0.2,0.42c0.5,1.36,0.45,2.84-0.16,4.16c-0.91,1.99-2.89,3.17-4.95,3.17
	c-0.76,0-1.53-0.16-2.26-0.5c-0.87-0.4-1.6-1.02-2.13-1.78c-0.3-0.42-0.86-0.56-1.3-0.31c-0.46,0.26-0.6,0.83-0.38,1.31
	c0.56,1.19,0.62,2.6,0.03,3.88c-0.52,1.12-1.44,1.98-2.6,2.41c-0.52,0.19-1.07,0.29-1.61,0.29c-0.66,0-1.31-0.14-1.93-0.42
	c-0.9-0.41-1.62-1.1-2.09-1.95c-0.4,0.44-0.77,0.9-1.08,1.4h0c-0.06,0.1-0.13,0.19-0.19,0.29c-0.86,1.49-1.32,3.19-1.32,4.91
	l0,15.07c0,3.5,1.88,6.76,4.91,8.51l13.05,7.53c1.49,0.86,3.19,1.32,4.91,1.32c0.02,0,0.04,0,0.06,0c1.7-0.01,3.38-0.46,4.85-1.31
	l17.97-10.38l0.1-9.53L30.67,54.04z"/>
<path class="st1" d="M38.03,32.65l-9.16,5.29c-0.38,0.22-0.81,0.33-1.23,0.33c-0.43,0-0.85-0.11-1.23-0.33l-9.16-5.29l0,0V42.7
	c0,1.2,0.64,2.32,1.69,2.92l7.1,4.1c0.5,0.29,1.05,0.43,1.61,0.43c0.55,0,1.11-0.14,1.61-0.43l7.1-4.1c1.04-0.6,1.69-1.71,1.69-2.92
	L38.03,32.65L38.03,32.65z"/>
<g>
	<path class="st0" d="M69.82,53.29c-2.11,0-4.05-0.39-5.84-1.18s-3.34-1.87-4.66-3.24c-1.32-1.37-2.34-3-3.08-4.88
		c-0.73-1.88-1.1-3.92-1.1-6.11c0-2.22,0.37-4.24,1.1-6.07c0.73-1.83,1.76-3.39,3.08-4.68c1.32-1.29,2.87-2.29,4.66-2.99
		s3.73-1.06,5.84-1.06h2.71c2.19,0,4.19,0.36,6.01,1.08c1.81,0.72,3.37,1.73,4.68,3.04c1.3,1.3,2.31,2.86,3.03,4.68
		c0.72,1.82,1.08,3.82,1.08,6.01c0,2.19-0.37,4.23-1.1,6.11c-0.73,1.88-1.76,3.51-3.08,4.88c-1.32,1.37-2.88,2.45-4.68,3.24
		c-1.8,0.79-3.78,1.18-5.94,1.18H69.82z M72.52,48.01c1.39,0,2.66-0.25,3.82-0.75c1.16-0.5,2.17-1.18,3.01-2.06
		c0.84-0.87,1.5-1.92,1.97-3.14c0.47-1.22,0.71-2.54,0.71-3.95c0-1.41-0.24-2.72-0.71-3.93c-0.47-1.21-1.13-2.24-1.97-3.1
		c-0.85-0.86-1.85-1.53-3.01-2.02c-1.16-0.48-2.44-0.73-3.82-0.73h-2.71c-1.36,0-2.61,0.24-3.76,0.73
		c-1.15,0.49-2.14,1.16-2.97,2.02c-0.83,0.86-1.48,1.88-1.95,3.08c-0.47,1.19-0.71,2.51-0.71,3.95c0,1.41,0.24,2.73,0.71,3.95
		c0.47,1.22,1.12,2.27,1.95,3.14c0.83,0.87,1.82,1.56,2.97,2.06c1.15,0.5,2.4,0.75,3.76,0.75H72.52z"/>
	<path class="st0" d="M115.94,53.29l-7.65-8.4h-7v-4.66h8.28c1.91,0,3.35-0.52,4.32-1.56c0.97-1.04,1.46-2.54,1.46-4.51
		c0-1.97-0.51-3.43-1.52-4.39c-1.01-0.96-2.43-1.43-4.26-1.43H97.43v24.94h-5.24V23.06h17.39c1.72,0,3.26,0.26,4.61,0.77
		c1.36,0.51,2.51,1.25,3.45,2.2c0.94,0.96,1.66,2.11,2.16,3.47c0.5,1.36,0.75,2.88,0.75,4.57c0,2.52-0.55,4.63-1.64,6.34
		c-1.1,1.7-2.63,2.93-4.59,3.68l9.1,9.19H115.94z"/>
	<path class="st0" d="M136.21,53.29V28.34h-11.47v-5.28h28.23v5.28h-11.47v24.94H136.21z"/>
	<path class="st0" d="M157.48,53.29V23.06h28.03v5.28h-22.8v19.66h22.84v5.28H157.48z M166.59,40.15V35.7h17.81v4.45H166.59z"/>
	<path class="st0" d="M192.4,53.29c-0.8,0-1.5-0.23-2.1-0.69c-0.6-0.46-0.89-1.13-0.89-2.02c0-0.78,0.36-1.52,1.08-2.25l20.08-20.24
		h-20.78v-5.03h26.44c0.78,0,1.47,0.23,2.08,0.69c0.61,0.46,0.91,1.13,0.91,2.02c0,0.78-0.36,1.52-1.08,2.25l-20.08,20.24h21.03
		v5.03H192.4z"/>
</g>
<g>
	<path class="st1" d="M137.13,62.76v1.35c0,0.38-0.6,0.38-0.6,0.01V59.3c0-0.18,0.14-0.29,0.31-0.29h1.81
		c1.45,0,2.12,0.96,2.12,1.92c0,1-0.69,1.83-2.15,1.83H137.13z M137.13,62.21h1.5c1.11,0,1.57-0.65,1.55-1.29
		c-0.01-0.68-0.55-1.38-1.52-1.38h-1.53V62.21z"/>
	<path class="st1" d="M144.81,62.46v1.62c0,0.38-0.61,0.38-0.61,0.01V59.3c0-0.18,0.13-0.29,0.31-0.29h1.98
		c1.45,0,2.18,0.82,2.18,1.8c0,0.84-0.46,1.45-1.49,1.63l1.35,1.46c0.32,0.32-0.14,0.68-0.42,0.4l-1.69-1.83H144.81z M144.81,61.94
		h1.69c1.09,0,1.57-0.51,1.55-1.14c-0.01-0.69-0.58-1.24-1.55-1.24h-1.69V61.94z"/>
	<path class="st1" d="M152.04,61.58c0-1.31,0.89-2.43,2.21-2.64c0.31-0.04,0.59-0.03,0.89,0c1.29,0.2,2.28,1.27,2.28,2.64
		c0,1.74-1.25,2.84-2.67,2.84C153.25,64.42,152.04,63.35,152.04,61.58z M152.67,61.6c0,1.37,0.9,2.24,2.08,2.24
		c1.13,0,2.06-0.83,2.06-2.24c0-1.08-0.71-1.94-1.74-2.11c-0.25-0.03-0.49-0.03-0.73,0C153.33,59.66,152.67,60.47,152.67,61.6z"/>
	<path class="st1" d="M161.17,64.33c-0.21,0-0.38-0.17-0.38-0.36v-4.6c0-0.19,0.18-0.35,0.38-0.35h1.82c1.66,0,2.49,1.33,2.49,2.66
		c0,1.33-0.83,2.66-2.49,2.66H161.17z M161.39,63.79h1.6c1.25,0,1.88-1.06,1.88-2.11c0-1.05-0.63-2.12-1.88-2.12h-1.6V63.79z"/>
	<path class="st1" d="M173.37,59.23c0-0.41,0.63-0.41,0.63-0.01v2.75c0,1.6-1.24,2.41-2.46,2.41c-1.22,0-2.46-0.81-2.46-2.41v-2.75
		c0-0.37,0.63-0.37,0.63,0.01v2.74c0,2.41,3.68,2.41,3.68,0V59.23z"/>
	<path class="st1" d="M181.59,64.12c-0.4,0.18-0.85,0.3-1.25,0.3c-1.43,0-2.72-1.17-2.72-2.82c0-1.37,0.98-2.46,2.26-2.66
		c0.98-0.13,1.83,0.11,2.49,0.8c0.25,0.28-0.2,0.63-0.43,0.38c-0.57-0.6-1.23-0.69-1.96-0.61c-1.03,0.16-1.75,0.88-1.75,2.1
		c0,1.27,0.98,2.24,2.13,2.24c0.31,0,0.65-0.08,0.97-0.24c0.26-0.13,0.51-0.33,0.68-0.56c0.19-0.28,0.7,0.02,0.48,0.33
		C182.27,63.69,181.95,63.94,181.59,64.12z"/>
	<path class="st1" d="M189.9,59.01c0.41,0,0.41,0.58,0,0.58h-1.86c0,1.5,0.01,3.03,0.01,4.54c0,0.21-0.18,0.31-0.32,0.31
		c-0.14,0-0.3-0.1-0.3-0.31v-4.54h-1.85c-0.39,0-0.39-0.58,0-0.58H189.9z"/>
	<path class="st1" d="M193.37,59.12c0-0.42,0.63-0.41,0.63,0v5c0,0.38-0.63,0.4-0.63,0V59.12z"/>
	<path class="st1" d="M197.45,61.58c0-1.31,0.89-2.43,2.21-2.64c0.31-0.04,0.59-0.03,0.89,0c1.29,0.2,2.28,1.27,2.28,2.64
		c0,1.74-1.25,2.84-2.67,2.84C198.65,64.42,197.45,63.35,197.45,61.58z M198.07,61.6c0,1.37,0.9,2.24,2.08,2.24
		c1.13,0,2.06-0.83,2.06-2.24c0-1.08-0.71-1.94-1.74-2.11c-0.25-0.03-0.49-0.03-0.73,0C198.73,59.66,198.07,60.47,198.07,61.6z"/>
	<path class="st1" d="M210.27,59.22c0-0.35,0.63-0.37,0.63,0v4.79c0,0.42-0.58,0.46-0.75,0.17l-3.12-4.19l0.07,1.15v2.95
		c0,0.41-0.63,0.42-0.63,0v-4.79c0-0.42,0.47-0.48,0.68-0.18l3.22,4.3l-0.08-1.26V59.22z"/>
	<path class="st1" d="M214.94,63.01c0.22,0.69,1.14,0.84,1.81,0.84c0.71,0,1.81-0.22,1.81-1.06c0-0.73-0.88-0.79-1.8-0.86
		c-1.15-0.09-2.39-0.2-2.39-1.45c0-1.1,1.27-1.6,2.29-1.6c0.88,0,1.97,0.21,2.32,1.16c0.13,0.33-0.44,0.48-0.57,0.2
		c-0.25-0.63-1.14-0.74-1.75-0.74c-0.56,0-1.65,0.23-1.65,0.99c0,0.73,0.84,0.8,1.8,0.88c1.14,0.1,2.37,0.16,2.37,1.41
		c0,1.28-1.43,1.67-2.46,1.67c-0.85,0-2.15-0.29-2.43-1.3C214.22,62.79,214.88,62.67,214.94,63.01z"/>
</g>
<g>
	<path class="st0" d="M26.03,49.71c0.5,0.29,1.05,0.43,1.61,0.43V38.26c-0.43,0-0.85-0.11-1.23-0.33l-9.16-5.29l0,0V42.7
		c0,1.2,0.64,2.32,1.69,2.92L26.03,49.71z"/>
</g>
<g>
	<path class="st1" d="M29.24,49.71c-0.5,0.29-1.05,0.43-1.61,0.43V38.26c0.43,0,0.85-0.11,1.23-0.33l9.16-5.29l0,0V42.7
		c0,1.2-0.64,2.32-1.69,2.92L29.24,49.71z"/>
</g>
<g>
	<path class="st1" d="M27.66,54.85c-1.06,0-2.1-0.28-3.01-0.81l-8.64-4.99c-1.86-1.07-3.01-3.07-3.01-5.22v-9.97
		c0-1.06,0.28-2.1,0.81-3.02c0.06-0.1,0.13-0.19,0.19-0.29l-7.7-4.44c-0.06,0.1-0.13,0.19-0.19,0.29c-0.86,1.49-1.32,3.19-1.32,4.91
		l0,15.07c0,3.5,1.88,6.76,4.91,8.51l13.05,7.53c1.49,0.86,3.19,1.32,4.91,1.32c0.02,0,0.04,0,0.06,0v-8.89
		C27.7,54.84,27.68,54.85,27.66,54.85z"/>
	<path class="st0" d="M30.67,54.04c-0.9,0.52-1.92,0.79-2.96,0.8v8.89c1.7-0.01,3.38-0.46,4.85-1.31l17.97-10.38l0.1-9.53
		L30.67,54.04z"/>
</g>
<g>
	<circle class="st0" cx="21.66" cy="16.34" r="3.43"/>
	<circle class="st0" cx="11.4" cy="22.46" r="2.62"/>
	<path class="st0" d="M12.07,14.5c0.28-0.62,1.02-0.89,1.64-0.61c0.62,0.28,0.89,1.02,0.61,1.64c-0.28,0.62-1.02,0.89-1.64,0.61
		C12.05,15.85,11.78,15.12,12.07,14.5z"/>
	<circle class="st0" cx="16.21" cy="6.78" r="1.23"/>
	<circle class="st0" cx="9.22" cy="9.59" r="1.83"/>
</g>
<g>
	<path class="st0" d="M32.57,15.28c-1.49-0.86-3.19-1.32-4.91-1.32c-0.37,0-0.74,0.03-1.1,0.07c0.07,0.14,0.15,0.27,0.2,0.42
		c0.5,1.36,0.45,2.84-0.16,4.16c-0.91,1.99-2.89,3.17-4.95,3.17c-0.76,0-1.53-0.16-2.26-0.5c-0.87-0.4-1.59-1.02-2.13-1.78
		c-0.3-0.42-0.86-0.56-1.3-0.31l0,0c-0.46,0.26-0.6,0.83-0.38,1.31c0.56,1.19,0.62,2.6,0.03,3.88c-0.52,1.12-1.44,1.98-2.6,2.41
		c-0.52,0.19-1.07,0.29-1.61,0.29c-0.66,0-1.31-0.14-1.93-0.43c-0.9-0.41-1.62-1.1-2.09-1.95c-0.4,0.44-0.77,0.9-1.08,1.4l7.7,4.44
		c0.52-0.78,1.2-1.45,2.01-1.92l8.64-4.98c0.92-0.53,1.96-0.81,3.01-0.81c1.06,0,2.1,0.28,3.01,0.81l9.5,5.48l8.2-4.74L32.57,15.28z
		"/>
</g>
<g class="st2">
	<path class="st3" d="M29.36,65.21l8.61-4.97c0.91-0.53,1.95-0.81,3.01-0.81s2.09,0.28,3.01,0.81l9.47,5.47l8.18-4.72l-15.76-9.1
		c-1.49-0.86-3.18-1.31-4.9-1.31s-3.41,0.45-4.9,1.31L23.07,59.4c-1.39,0.8-2.54,1.94-3.39,3.3l7.68,4.43
		C27.87,66.34,28.55,65.68,29.36,65.21z"/>
	<g class="st4">
		<path class="st5" d="M40.98,91.35c-1.05,0-2.09-0.28-3.01-0.81l-8.61-4.97c-1.85-1.07-3.01-3.06-3.01-5.21v-9.94
			c0-1.05,0.28-2.09,0.81-3.01c0.06-0.1,0.13-0.19,0.19-0.29l-7.68-4.43c-0.06,0.1-0.13,0.19-0.19,0.29
			c-0.86,1.49-1.31,3.18-1.31,4.9l0,15.02c0,3.49,1.88,6.74,4.9,8.48l13.01,7.51c1.49,0.86,3.18,1.31,4.9,1.31c0.02,0,0.04,0,0.06,0
			v-8.86C41.02,91.34,41,91.35,40.98,91.35z"/>
		<path class="st6" d="M43.98,90.54c-0.9,0.52-1.91,0.79-2.95,0.8v8.86c1.7-0.01,3.37-0.46,4.84-1.31L63.8,88.55l0.1-9.51
			L43.98,90.54z"/>
	</g>
</g>
</svg>
