<?xml version="1.0" encoding="utf-8"?>
<!-- Generator: Adobe Adobe Illustrator 29.2.0, SVG Export Plug-In . SVG Version: 6.00 Build 0)  -->
<svg version="1.1" id="Layer_1" xmlns="http://www.w3.org/2000/svg" xmlns:xlink="http://www.w3.org/1999/xlink" x="0px" y="0px"
	 viewBox="0 0 60 60" style="enable-background:new 0 0 60 60;" xml:space="preserve">
<style type="text/css">
	.st0{fill:#FFFFFF;}
	.st1{fill:#DBDBDB;}
	.st2{display:none;}
	.st3{display:inline;fill:#A0DEF9;}
	.st4{display:inline;}
	.st5{fill:#8BCCE8;}
	.st6{fill:#7CBCD8;}
</style>
<path class="st0" d="M32.08,44.74c-0.73,0.42-1.56,0.65-2.4,0.65c-0.02,0-0.03,0-0.05,0c-0.86,0-1.71-0.23-2.45-0.66l-7.02-4.05
	c-1.51-0.87-2.45-2.5-2.45-4.25v-8.11c0-0.86,0.23-1.71,0.66-2.45c0.05-0.08,0.1-0.15,0.16-0.23c0.42-0.64,0.98-1.18,1.64-1.56
	l7.02-4.05c0.74-0.43,1.59-0.66,2.45-0.66c0.86,0,1.71,0.23,2.45,0.66l7.72,4.46l6.67-3.85l-12.85-7.42
	c-1.21-0.7-2.59-1.07-3.99-1.07c-0.3,0-0.6,0.03-0.9,0.06c0.05,0.11,0.12,0.22,0.17,0.34c0.41,1.11,0.37,2.31-0.13,3.38
	c-0.74,1.62-2.35,2.58-4.03,2.58c-0.62,0-1.24-0.13-1.84-0.4c-0.71-0.33-1.3-0.83-1.73-1.45c-0.24-0.34-0.7-0.46-1.06-0.25
	c-0.37,0.21-0.49,0.68-0.31,1.06c0.46,0.97,0.51,2.11,0.03,3.16c-0.42,0.91-1.17,1.61-2.11,1.96c-0.43,0.16-0.87,0.24-1.31,0.24
	c-0.54,0-1.07-0.12-1.57-0.35c-0.73-0.34-1.32-0.89-1.7-1.59c-0.32,0.36-0.62,0.73-0.88,1.14h0c-0.05,0.08-0.11,0.15-0.16,0.23
	c-0.7,1.21-1.07,2.59-1.07,3.99l0,12.25c0,2.84,1.53,5.5,3.99,6.92l10.61,6.12c1.21,0.7,2.59,1.07,3.99,1.07c0.02,0,0.03,0,0.05,0
	c1.38-0.01,2.75-0.37,3.95-1.07l14.61-8.44l0.08-7.75L32.08,44.74z"/>
<path class="st1" d="M38.07,27.34l-7.45,4.3c-0.31,0.18-0.66,0.27-1,0.27c-0.35,0-0.69-0.09-1-0.27l-7.44-4.3l0,0v8.17
	c0,0.98,0.52,1.88,1.37,2.37l5.77,3.33c0.4,0.23,0.86,0.35,1.31,0.35c0.45,0,0.9-0.12,1.31-0.35l5.77-3.33
	c0.85-0.49,1.37-1.39,1.37-2.37L38.07,27.34L38.07,27.34z"/>
<g>
	<path class="st0" d="M89.82,48.66c-2.11,0-4.05-0.39-5.84-1.18s-3.34-1.87-4.66-3.24c-1.32-1.37-2.34-3-3.08-4.88
		c-0.73-1.88-1.1-3.92-1.1-6.11c0-2.22,0.37-4.24,1.1-6.07c0.73-1.83,1.76-3.39,3.08-4.68c1.32-1.29,2.87-2.29,4.66-2.99
		s3.73-1.06,5.84-1.06h2.71c2.19,0,4.19,0.36,6.01,1.08c1.81,0.72,3.37,1.73,4.68,3.04c1.3,1.3,2.31,2.86,3.03,4.68
		c0.72,1.82,1.08,3.82,1.08,6.01c0,2.19-0.37,4.23-1.1,6.11c-0.73,1.88-1.76,3.51-3.08,4.88c-1.32,1.37-2.88,2.45-4.68,3.24
		c-1.8,0.79-3.78,1.18-5.94,1.18H89.82z M92.52,43.38c1.39,0,2.66-0.25,3.82-0.75c1.16-0.5,2.17-1.18,3.01-2.06
		c0.84-0.87,1.5-1.92,1.97-3.14c0.47-1.22,0.71-2.54,0.71-3.95c0-1.41-0.24-2.72-0.71-3.93c-0.47-1.21-1.13-2.24-1.97-3.1
		c-0.85-0.86-1.85-1.53-3.01-2.02c-1.16-0.48-2.44-0.73-3.82-0.73h-2.71c-1.36,0-2.61,0.24-3.76,0.73
		c-1.15,0.49-2.14,1.16-2.97,2.02c-0.83,0.86-1.48,1.88-1.95,3.08c-0.47,1.19-0.71,2.51-0.71,3.95c0,1.41,0.24,2.73,0.71,3.95
		c0.47,1.22,1.12,2.27,1.95,3.14c0.83,0.87,1.82,1.56,2.97,2.06c1.15,0.5,2.4,0.75,3.76,0.75H92.52z"/>
	<path class="st0" d="M135.94,48.66l-7.65-8.4h-7v-4.66h8.28c1.91,0,3.35-0.52,4.32-1.56c0.97-1.04,1.46-2.54,1.46-4.51
		c0-1.97-0.51-3.43-1.52-4.39c-1.01-0.96-2.43-1.43-4.26-1.43h-12.15v24.94h-5.24V18.44h17.39c1.72,0,3.26,0.26,4.61,0.77
		c1.36,0.51,2.51,1.25,3.45,2.2c0.94,0.96,1.66,2.11,2.16,3.47c0.5,1.36,0.75,2.88,0.75,4.57c0,2.52-0.55,4.63-1.64,6.34
		c-1.1,1.7-2.63,2.93-4.59,3.68l9.1,9.19H135.94z"/>
	<path class="st0" d="M156.21,48.66V23.72h-11.47v-5.28h28.23v5.28h-11.47v24.94H156.21z"/>
	<path class="st0" d="M177.48,48.66V18.44h28.03v5.28h-22.8v19.66h22.84v5.28H177.48z M186.59,35.52v-4.45h17.81v4.45H186.59z"/>
	<path class="st0" d="M212.4,48.66c-0.8,0-1.5-0.23-2.1-0.69c-0.6-0.46-0.89-1.13-0.89-2.02c0-0.78,0.36-1.52,1.08-2.25l20.08-20.24
		h-20.78v-5.03h26.44c0.78,0,1.47,0.23,2.08,0.69c0.61,0.46,0.91,1.13,0.91,2.02c0,0.78-0.36,1.52-1.08,2.25l-20.08,20.24h21.03
		v5.03H212.4z"/>
</g>
<g>
	<path class="st1" d="M157.13,58.13v1.35c0,0.38-0.6,0.38-0.6,0.01v-4.81c0-0.18,0.14-0.29,0.31-0.29h1.81
		c1.45,0,2.12,0.96,2.12,1.92c0,1-0.69,1.83-2.15,1.83H157.13z M157.13,57.59h1.5c1.11,0,1.57-0.65,1.55-1.29
		c-0.01-0.68-0.55-1.38-1.52-1.38h-1.53V57.59z"/>
	<path class="st1" d="M164.81,57.84v1.62c0,0.38-0.61,0.38-0.61,0.01v-4.79c0-0.18,0.13-0.29,0.31-0.29h1.98
		c1.45,0,2.18,0.82,2.18,1.8c0,0.84-0.46,1.45-1.49,1.63l1.35,1.46c0.32,0.32-0.14,0.68-0.42,0.4l-1.69-1.83H164.81z M164.81,57.31
		h1.69c1.09,0,1.57-0.51,1.55-1.14c-0.01-0.69-0.58-1.24-1.55-1.24h-1.69V57.31z"/>
	<path class="st1" d="M172.04,56.95c0-1.31,0.89-2.43,2.21-2.64c0.31-0.04,0.59-0.03,0.89,0c1.29,0.2,2.28,1.27,2.28,2.64
		c0,1.74-1.25,2.84-2.67,2.84C173.25,59.79,172.04,58.73,172.04,56.95z M172.67,56.98c0,1.37,0.9,2.24,2.08,2.24
		c1.13,0,2.06-0.83,2.06-2.24c0-1.08-0.71-1.94-1.74-2.11c-0.25-0.03-0.49-0.03-0.73,0C173.33,55.03,172.67,55.84,172.67,56.98z"/>
	<path class="st1" d="M181.17,59.7c-0.21,0-0.38-0.17-0.38-0.36v-4.6c0-0.19,0.18-0.35,0.38-0.35h1.82c1.66,0,2.49,1.33,2.49,2.66
		c0,1.33-0.83,2.66-2.49,2.66H181.17z M181.39,59.16h1.6c1.25,0,1.88-1.06,1.88-2.11c0-1.05-0.63-2.12-1.88-2.12h-1.6V59.16z"/>
	<path class="st1" d="M193.37,54.61c0-0.41,0.63-0.41,0.63-0.01v2.75c0,1.6-1.24,2.41-2.46,2.41c-1.22,0-2.46-0.81-2.46-2.41V54.6
		c0-0.37,0.63-0.37,0.63,0.01v2.74c0,2.41,3.68,2.41,3.68,0V54.61z"/>
	<path class="st1" d="M201.59,59.49c-0.4,0.18-0.85,0.3-1.25,0.3c-1.43,0-2.72-1.17-2.72-2.82c0-1.37,0.98-2.46,2.26-2.66
		c0.98-0.13,1.83,0.11,2.49,0.8c0.25,0.28-0.2,0.63-0.43,0.38c-0.57-0.6-1.23-0.69-1.96-0.61c-1.03,0.16-1.75,0.88-1.75,2.1
		c0,1.27,0.98,2.24,2.13,2.24c0.31,0,0.65-0.08,0.97-0.24c0.26-0.13,0.51-0.33,0.68-0.56c0.19-0.28,0.7,0.02,0.48,0.33
		C202.27,59.07,201.95,59.32,201.59,59.49z"/>
	<path class="st1" d="M209.9,54.38c0.41,0,0.41,0.58,0,0.58h-1.86c0,1.5,0.01,3.03,0.01,4.54c0,0.21-0.18,0.31-0.32,0.31
		c-0.14,0-0.3-0.1-0.3-0.31v-4.54h-1.85c-0.39,0-0.39-0.58,0-0.58H209.9z"/>
	<path class="st1" d="M213.37,54.5c0-0.42,0.63-0.41,0.63,0v5c0,0.38-0.63,0.4-0.63,0V54.5z"/>
	<path class="st1" d="M217.45,56.95c0-1.31,0.89-2.43,2.21-2.64c0.31-0.04,0.59-0.03,0.89,0c1.29,0.2,2.28,1.27,2.28,2.64
		c0,1.74-1.25,2.84-2.67,2.84C218.65,59.79,217.45,58.73,217.45,56.95z M218.07,56.98c0,1.37,0.9,2.24,2.08,2.24
		c1.13,0,2.06-0.83,2.06-2.24c0-1.08-0.71-1.94-1.74-2.11c-0.25-0.03-0.49-0.03-0.73,0C218.73,55.03,218.07,55.84,218.07,56.98z"/>
	<path class="st1" d="M230.27,54.59c0-0.35,0.63-0.37,0.63,0v4.79c0,0.42-0.58,0.46-0.75,0.17l-3.12-4.19l0.07,1.15v2.95
		c0,0.41-0.63,0.42-0.63,0v-4.79c0-0.42,0.47-0.48,0.68-0.18l3.22,4.3l-0.08-1.26V54.59z"/>
	<path class="st1" d="M234.94,58.38c0.22,0.69,1.14,0.84,1.81,0.84c0.71,0,1.81-0.22,1.81-1.06c0-0.73-0.88-0.79-1.8-0.86
		c-1.15-0.09-2.39-0.2-2.39-1.45c0-1.1,1.27-1.6,2.29-1.6c0.88,0,1.97,0.21,2.32,1.16c0.13,0.33-0.44,0.48-0.57,0.2
		c-0.25-0.63-1.14-0.74-1.75-0.74c-0.56,0-1.65,0.23-1.65,0.99c0,0.73,0.84,0.8,1.8,0.88c1.14,0.1,2.37,0.16,2.37,1.41
		c0,1.28-1.43,1.67-2.46,1.67c-0.85,0-2.15-0.29-2.43-1.3C234.22,58.17,234.88,58.04,234.94,58.38z"/>
</g>
<g>
	<path class="st0" d="M28.31,41.22c0.4,0.23,0.86,0.35,1.31,0.35v-9.66c-0.35,0-0.69-0.09-1-0.27l-7.45-4.3l0,0v8.17
		c0,0.98,0.52,1.88,1.37,2.37L28.31,41.22z"/>
</g>
<g>
	<path class="st1" d="M30.92,41.22c-0.4,0.23-0.86,0.35-1.31,0.35v-9.66c0.35,0,0.69-0.09,1-0.27l7.45-4.3l0,0v8.17
		c0,0.98-0.52,1.88-1.37,2.37L30.92,41.22z"/>
</g>
<g>
	<path class="st1" d="M29.63,45.39c-0.86,0-1.71-0.23-2.45-0.66l-7.02-4.05c-1.51-0.87-2.45-2.5-2.45-4.25v-8.11
		c0-0.86,0.23-1.71,0.66-2.45c0.05-0.08,0.1-0.15,0.16-0.23l-6.26-3.61c-0.05,0.08-0.11,0.15-0.16,0.23
		c-0.7,1.21-1.07,2.59-1.07,3.99l0,12.25c0,2.84,1.53,5.5,3.99,6.92l10.61,6.12c1.21,0.7,2.59,1.07,3.99,1.07c0.02,0,0.03,0,0.05,0
		v-7.23C29.66,45.39,29.65,45.39,29.63,45.39z"/>
	<path class="st0" d="M32.08,44.74c-0.73,0.42-1.56,0.65-2.4,0.65v7.23c1.38-0.01,2.75-0.37,3.95-1.07l14.61-8.44l0.08-7.75
		L32.08,44.74z"/>
</g>
<g>
	<circle class="st0" cx="24.76" cy="14.08" r="2.79"/>
	<circle class="st0" cx="16.42" cy="19.06" r="2.13"/>
	<path class="st0" d="M16.96,12.58c0.23-0.5,0.83-0.72,1.33-0.49c0.5,0.23,0.72,0.83,0.49,1.33c-0.23,0.5-0.83,0.72-1.33,0.49
		C16.95,13.68,16.72,13.09,16.96,12.58z"/>
	<circle class="st0" cx="20.33" cy="6.31" r="1"/>
	<circle class="st0" cx="14.64" cy="8.59" r="1.49"/>
</g>
<g>
	<path class="st0" d="M33.63,13.22c-1.21-0.7-2.59-1.07-3.99-1.07c-0.3,0-0.6,0.03-0.9,0.06c0.05,0.11,0.12,0.22,0.17,0.34
		c0.41,1.11,0.37,2.31-0.13,3.38c-0.74,1.62-2.35,2.58-4.03,2.58c-0.62,0-1.24-0.13-1.84-0.4c-0.71-0.33-1.3-0.83-1.73-1.45
		c-0.24-0.34-0.7-0.46-1.06-0.25l0,0c-0.37,0.21-0.49,0.68-0.31,1.06c0.46,0.97,0.51,2.11,0.03,3.16c-0.42,0.91-1.17,1.61-2.11,1.96
		c-0.43,0.16-0.87,0.24-1.31,0.24c-0.54,0-1.07-0.12-1.57-0.35c-0.73-0.34-1.32-0.89-1.7-1.59c-0.32,0.36-0.62,0.73-0.88,1.14
		l6.26,3.61c0.42-0.64,0.98-1.18,1.64-1.56l7.02-4.05c0.74-0.43,1.59-0.66,2.45-0.66c0.86,0,1.71,0.23,2.45,0.66l7.72,4.46
		l6.67-3.85L33.63,13.22z"/>
</g>
<g class="st2">
	<path class="st3" d="M49.36,60.59l8.61-4.97c0.91-0.53,1.95-0.81,3.01-0.81s2.09,0.28,3.01,0.81l9.47,5.47l8.18-4.72l-15.76-9.1
		c-1.49-0.86-3.18-1.31-4.9-1.31s-3.41,0.45-4.9,1.31l-13.01,7.51c-1.39,0.8-2.54,1.94-3.39,3.3l7.68,4.43
		C47.87,61.72,48.55,61.06,49.36,60.59z"/>
	<g class="st4">
		<path class="st5" d="M60.98,86.72c-1.05,0-2.09-0.28-3.01-0.81l-8.61-4.97c-1.85-1.07-3.01-3.06-3.01-5.21V65.8
			c0-1.05,0.28-2.09,0.81-3.01c0.06-0.1,0.13-0.19,0.19-0.29l-7.68-4.43c-0.06,0.1-0.13,0.19-0.19,0.29
			c-0.86,1.49-1.31,3.18-1.31,4.9l0,15.02c0,3.49,1.88,6.74,4.9,8.48l13.01,7.51c1.49,0.86,3.18,1.31,4.9,1.31c0.02,0,0.04,0,0.06,0
			v-8.86C61.02,86.72,61,86.72,60.98,86.72z"/>
		<path class="st6" d="M63.98,85.92c-0.9,0.52-1.91,0.79-2.95,0.8v8.86c1.7-0.01,3.37-0.46,4.84-1.31L83.8,83.93l0.1-9.51
			L63.98,85.92z"/>
	</g>
</g>
</svg>
